<svg width="110" height="48" viewBox="0 0 110 48" fill="none" xmlns="http://www.w3.org/2000/svg">
<path d="M74.6 10.08V39H71.84C71.4133 39 71.0533 38.9333 70.76 38.8C70.48 38.6533 70.2067 38.4133 69.94 38.08L54.84 18.8C54.92 19.68 54.96 20.4933 54.96 21.24V39H50.22V10.08H53.04C53.2667 10.08 53.46 10.0933 53.62 10.12C53.7933 10.1333 53.94 10.1733 54.06 10.24C54.1933 10.2933 54.32 10.38 54.44 10.5C54.56 10.6067 54.6933 10.7533 54.84 10.94L70 30.3C69.96 29.8333 69.9267 29.3733 69.9 28.92C69.8733 28.4667 69.86 28.0467 69.86 27.66V10.08H74.6ZM106.167 15.34C106.007 15.62 105.834 15.8267 105.647 15.96C105.474 16.08 105.254 16.14 104.987 16.14C104.707 16.14 104.4 16.04 104.067 15.84C103.747 15.6267 103.36 15.3933 102.907 15.14C102.454 14.8867 101.92 14.66 101.307 14.46C100.707 14.2467 99.9935 14.14 99.1669 14.14C98.4202 14.14 97.7669 14.2333 97.2069 14.42C96.6469 14.5933 96.1735 14.84 95.7869 15.16C95.4135 15.48 95.1335 15.8667 94.9469 16.32C94.7602 16.76 94.6669 17.2467 94.6669 17.78C94.6669 18.46 94.8535 19.0267 95.2269 19.48C95.6135 19.9333 96.1202 20.32 96.7469 20.64C97.3735 20.96 98.0869 21.2467 98.8869 21.5C99.6869 21.7533 100.507 22.0267 101.347 22.32C102.187 22.6 103.007 22.9333 103.807 23.32C104.607 23.6933 105.32 24.1733 105.947 24.76C106.574 25.3333 107.074 26.04 107.447 26.88C107.834 27.72 108.027 28.74 108.027 29.94C108.027 31.2467 107.8 32.4733 107.347 33.62C106.907 34.7533 106.254 35.7467 105.387 36.6C104.534 37.44 103.487 38.1067 102.247 38.6C101.007 39.08 99.5869 39.32 97.9869 39.32C97.0669 39.32 96.1602 39.2267 95.2669 39.04C94.3735 38.8667 93.5135 38.6133 92.6869 38.28C91.8735 37.9467 91.1069 37.5467 90.3869 37.08C89.6669 36.6133 89.0269 36.0933 88.4669 35.52L90.0469 32.94C90.1802 32.7533 90.3535 32.6 90.5669 32.48C90.7802 32.3467 91.0069 32.28 91.2469 32.28C91.5802 32.28 91.9402 32.42 92.3269 32.7C92.7135 32.9667 93.1735 33.2667 93.7069 33.6C94.2402 33.9333 94.8602 34.24 95.5669 34.52C96.2869 34.7867 97.1469 34.92 98.1469 34.92C99.6802 34.92 100.867 34.56 101.707 33.84C102.547 33.1067 102.967 32.06 102.967 30.7C102.967 29.94 102.774 29.32 102.387 28.84C102.014 28.36 101.514 27.96 100.887 27.64C100.26 27.3067 99.5469 27.0267 98.7469 26.8C97.9469 26.5733 97.1335 26.3267 96.3069 26.06C95.4802 25.7933 94.6669 25.4733 93.8669 25.1C93.0669 24.7267 92.3535 24.24 91.7269 23.64C91.1002 23.04 90.5935 22.2933 90.2069 21.4C89.8335 20.4933 89.6469 19.38 89.6469 18.06C89.6469 17.0067 89.8535 15.98 90.2669 14.98C90.6935 13.98 91.3069 13.0933 92.1069 12.32C92.9069 11.5467 93.8935 10.9267 95.0669 10.46C96.2402 9.99333 97.5869 9.76 99.1069 9.76C100.814 9.76 102.387 10.0267 103.827 10.56C105.267 11.0933 106.494 11.84 107.507 12.8L106.167 15.34Z" fill="#EB00FF"/>
<path d="M38.0419 20.2844C36.0166 27.2607 28.7058 39 18.4926 39C8.27942 39 0 28.7521 0 20.2844C0 9.94808 4.44881 10.9026 14.662 10.9026C24.8752 10.9026 49.4539 -19.0231 38.0419 20.2844Z" fill="#EB00FF"/>
</svg>
