<svg width="110" height="24" viewBox="0 0 110 24" fill="none" xmlns="http://www.w3.org/2000/svg">
<path d="M93.8 2H102.2C105.4 2 108 4.6 108 7.8V16.2C108 17.7383 107.389 19.2135 106.301 20.3012C105.214 21.3889 103.738 22 102.2 22H93.8C90.6 22 88 19.4 88 16.2V7.8C88 6.26174 88.6111 4.78649 89.6988 3.69878C90.7865 2.61107 92.2617 2 93.8 2ZM93.6 4C92.6452 4 91.7295 4.37928 91.0544 5.05442C90.3793 5.72955 90 6.64522 90 7.6V16.4C90 18.39 91.61 20 93.6 20H102.4C103.355 20 104.27 19.6207 104.946 18.9456C105.621 18.2705 106 17.3548 106 16.4V7.6C106 5.61 104.39 4 102.4 4H93.6ZM103.25 5.5C103.582 5.5 103.899 5.6317 104.134 5.86612C104.368 6.10054 104.5 6.41848 104.5 6.75C104.5 7.08152 104.368 7.39946 104.134 7.63388C103.899 7.8683 103.582 8 103.25 8C102.918 8 102.601 7.8683 102.366 7.63388C102.132 7.39946 102 7.08152 102 6.75C102 6.41848 102.132 6.10054 102.366 5.86612C102.601 5.6317 102.918 5.5 103.25 5.5ZM98 7C99.3261 7 100.598 7.52678 101.536 8.46447C102.473 9.40215 103 10.6739 103 12C103 13.3261 102.473 14.5979 101.536 15.5355C100.598 16.4732 99.3261 17 98 17C96.6739 17 95.4021 16.4732 94.4645 15.5355C93.5268 14.5979 93 13.3261 93 12C93 10.6739 93.5268 9.40215 94.4645 8.46447C95.4021 7.52678 96.6739 7 98 7ZM98 9C97.2044 9 96.4413 9.31607 95.8787 9.87868C95.3161 10.4413 95 11.2044 95 12C95 12.7956 95.3161 13.5587 95.8787 14.1213C96.4413 14.6839 97.2044 15 98 15C98.7956 15 99.5587 14.6839 100.121 14.1213C100.684 13.5587 101 12.7956 101 12C101 11.2044 100.684 10.4413 100.121 9.87868C99.5587 9.31607 98.7956 9 98 9Z" fill="white"/>
<path d="M65.92 5C65.15 5.35 64.32 5.58 63.46 5.69C64.34 5.16 65.02 4.32 65.34 3.31C64.51 3.81 63.59 4.16 62.62 4.36C61.83 3.5 60.72 3 59.46 3C57.11 3 55.19 4.92 55.19 7.29C55.19 7.63 55.23 7.96 55.3 8.27C51.74 8.09 48.57 6.38 46.46 3.79C46.09 4.42 45.88 5.16 45.88 5.94C45.88 7.43 46.63 8.75 47.79 9.5C47.08 9.5 46.42 9.3 45.84 9C45.84 9 45.84 9 45.84 9.03C45.84 11.11 47.32 12.85 49.28 13.24C48.92 13.34 48.54 13.39 48.15 13.39C47.88 13.39 47.61 13.36 47.35 13.31C47.89 15 49.46 16.26 51.35 16.29C49.89 17.45 48.04 18.13 46.02 18.13C45.68 18.13 45.34 18.11 45 18.07C46.9 19.29 49.16 20 51.58 20C59.46 20 63.79 13.46 63.79 7.79C63.79 7.6 63.79 7.42 63.78 7.23C64.62 6.63 65.34 5.87 65.92 5Z" fill="white"/>
<path d="M14.2624 10.52L13.89 12.92H12.06V13.42M14.2624 10.52L7.94 19.8284C3.40712 18.8771 0 14.8442 0 10.02C0 4.49 4.5 0 10 0C15.5 0 20 4.49 20 10.02C20.0054 12.4056 19.1576 14.7146 17.6099 16.5301C16.1724 18.2163 14.219 19.3735 12.06 19.828V19.3164M14.2624 10.52H14.34V10.02L13.8459 9.94333L13.834 10.02H12.06V9.52M14.2624 10.52L14.45 6.58H13.95H13.19C11.95 6.58 11.56 7.35 11.56 8.14V9.52H12.06M12.06 13.42H11.56V19.4135C11.7279 19.3855 11.8946 19.3531 12.06 19.3164M12.06 13.42V19.3164M12.06 13.42H13.89H14.3184L14.3841 12.9967L14.8341 10.0967L14.9236 9.52H14.34H12.06M12.06 19.3164C14.0701 18.87 15.8867 17.7807 17.2294 16.2057C18.6998 14.481 19.5051 12.2875 19.5 10.0211L19.5 10.02C19.5 4.76582 15.2235 0.5 10 0.5C4.77647 0.5 0.5 4.76582 0.5 10.02C0.5 14.5673 3.68616 18.3744 7.94 19.3169V13.42H5.9H5.4V12.92V10.02V9.52H5.9H7.94V7.81C7.94 6.45566 8.34402 5.34387 9.1177 4.5702C9.89083 3.79707 10.9747 3.42 12.22 3.42C12.791 3.42 13.3689 3.46956 13.7998 3.51815C14.0163 3.54256 14.1979 3.56699 14.326 3.5854C14.3901 3.59461 14.4408 3.60233 14.476 3.60781L14.5167 3.61426L14.5277 3.61606L14.5308 3.61657L14.5317 3.61672L14.532 3.61677L14.5321 3.61679L14.45 4.11L14.5322 3.6168L14.95 3.68644V4.11V6.58V7.08H14.45H13.19C12.6787 7.08 12.4239 7.23431 12.2878 7.39128C12.1402 7.56156 12.06 7.81848 12.06 8.14V9.52" fill="white" stroke="black"/>
</svg>
